<svg xmlns="http://www.w3.org/2000/svg" xmlns:xlink="http://www.w3.org/1999/xlink" viewBox="0 0 479 51.75"><defs><style>.cls-1{fill:#fff;}.cls-2{fill:none;}.cls-3{fill:#2f4f91;}.cls-4{clip-path:url(#clip-path);}.cls-5{clip-path:url(#clip-path-2);}.cls-6{isolation:isolate;}.cls-7{clip-path:url(#clip-path-3);}</style><clipPath id="clip-path" transform="translate(-17.21 -21.15)"><path class="cls-1" d="M256.76,43.51a8.7,8.7,0,1,0,8.7,8.7A8.69,8.69,0,0,0,256.76,43.51Zm13.64-7.87L275.13,31,278,33.84l-4.78,4.8Z"/></clipPath><clipPath id="clip-path-2" transform="translate(-17.21 -21.15)"><rect class="cls-2" width="928.19" height="522.11"/></clipPath><clipPath id="clip-path-3" transform="translate(-17.21 -21.15)"><rect class="cls-2" x="242.68" y="26.11" width="40.61" height="39.64"/></clipPath></defs><title>Asset 1</title><g id="Layer_2" data-name="Layer 2"><g id="Layer_1-2" data-name="Layer 1"><path class="cls-1" d="M24.19,72a1.2,1.2,0,0,1-.4-1.09L25,63.14H18.88a1.64,1.64,0,0,1-1.2-.47,1.62,1.62,0,0,1-.47-1.19V57.29a1.61,1.61,0,0,1,1.67-1.67H26.1l1.59-10.84H20.75a1.58,1.58,0,0,1-1.19-.47,1.62,1.62,0,0,1-.47-1.19V38.93a1.62,1.62,0,0,1,.47-1.19,1.58,1.58,0,0,1,1.19-.47h8.1L30,29.46a2.1,2.1,0,0,1,.57-1.08,1.48,1.48,0,0,1,1.09-.44h4.26a1.45,1.45,0,0,1,1.08.44,1.47,1.47,0,0,1,.44,1.08l-1.16,7.81h9l1.16-7.81A2.19,2.19,0,0,1,47,28.38a1.47,1.47,0,0,1,1.08-.44h4.27a1.49,1.49,0,0,1,1.51,1.52L52.7,37.27h6a1.6,1.6,0,0,1,1.19.47,1.62,1.62,0,0,1,.47,1.19v4.19a1.62,1.62,0,0,1-.47,1.19,1.6,1.6,0,0,1-1.19.47H51.61L50,55.62h6.87a1.61,1.61,0,0,1,1.66,1.67v4.19a1.61,1.61,0,0,1-1.66,1.66h-8l-1.16,7.8A2.18,2.18,0,0,1,47.13,72a1.55,1.55,0,0,1-1.15.43H41.71A1.59,1.59,0,0,1,40.59,72a1.25,1.25,0,0,1-.4-1.09l1.23-7.8h-9l-1.15,7.8A2.18,2.18,0,0,1,30.73,72a1.57,1.57,0,0,1-1.16.43H25.31A1.57,1.57,0,0,1,24.19,72Zm9.36-16.41h9L44.1,44.78H35.21Z" transform="translate(-17.21 -21.15)"/><path class="cls-1" d="M69.1,72a1.71,1.71,0,0,1-.5-1.23V22.89a1.69,1.69,0,0,1,.5-1.27,1.77,1.77,0,0,1,1.23-.47H76.4a1.62,1.62,0,0,1,1.74,1.74V70.73A1.77,1.77,0,0,1,77.67,72a1.69,1.69,0,0,1-1.27.5H70.33A1.71,1.71,0,0,1,69.1,72Z" transform="translate(-17.21 -21.15)"/><path class="cls-1" d="M91.18,67.84q-4.74-4.62-5-13.16l-.07-1.8q0-9,4.73-14.24t13.12-5.2q8.59,0,13.26,5.2t4.66,13.88V54a1.64,1.64,0,0,1-.51,1.23,1.74,1.74,0,0,1-1.3.51h-24v.58A11.17,11.17,0,0,0,98.26,63a6.82,6.82,0,0,0,5.68,2.64,8.18,8.18,0,0,0,6.72-3.32,3.73,3.73,0,0,1,1-1,3,3,0,0,1,1.23-.18h6.36a1.81,1.81,0,0,1,1.12.36,1.21,1.21,0,0,1,.47,1q0,1.74-2.06,4.09a17.29,17.29,0,0,1-5.89,4.08A21.5,21.5,0,0,1,104,72.46Q95.91,72.46,91.18,67.84Zm20.71-18.22v-.14a10.36,10.36,0,0,0-2.14-6.83,7.15,7.15,0,0,0-5.81-2.56,7.07,7.07,0,0,0-5.79,2.56,10.51,10.51,0,0,0-2.09,6.83v.14Z" transform="translate(-17.21 -21.15)"/><path class="cls-1" d="M136.53,69Q133.2,65.6,133.2,59V42.62h-5.71a1.64,1.64,0,0,1-1.22-.51,1.68,1.68,0,0,1-.51-1.23V36.62a1.68,1.68,0,0,1,.51-1.23,1.64,1.64,0,0,1,1.22-.51h5.71v-12a1.66,1.66,0,0,1,.51-1.27,1.77,1.77,0,0,1,1.23-.47h6a1.71,1.71,0,0,1,1.26.47,1.75,1.75,0,0,1,.47,1.27v12h9a1.64,1.64,0,0,1,1.23.51,1.68,1.68,0,0,1,.51,1.23v4.26a1.68,1.68,0,0,1-.51,1.23,1.64,1.64,0,0,1-1.23.51h-9V58.15a8.29,8.29,0,0,0,1.09,4.7,4,4,0,0,0,3.54,1.59h5.06a1.72,1.72,0,0,1,1.26.47,1.75,1.75,0,0,1,.47,1.27v4.55a1.77,1.77,0,0,1-.47,1.23,1.66,1.66,0,0,1-1.26.5h-5.93Q139.84,72.46,136.53,69Z" transform="translate(-17.21 -21.15)"/><path class="cls-1" d="M165.65,70.8a14.65,14.65,0,0,1-5.45-3.86,6.58,6.58,0,0,1-1.78-3.8A1.49,1.49,0,0,1,158.9,62a1.62,1.62,0,0,1,1.12-.43h5.92a1.23,1.23,0,0,1,1,.58c.24.19.79.65,1.63,1.37a9.5,9.5,0,0,0,2.89,1.7,10,10,0,0,0,3.58.62,8.75,8.75,0,0,0,4.69-1.13,3.54,3.54,0,0,0,1.81-3.21,3.36,3.36,0,0,0-.83-2.35,7.4,7.4,0,0,0-3-1.66,55.23,55.23,0,0,0-6.4-1.7q-6.13-1.31-9.07-4a9.12,9.12,0,0,1-2.92-7.08,9.51,9.51,0,0,1,1.73-5.45,12.58,12.58,0,0,1,5.17-4.2,19,19,0,0,1,8.2-1.62A21,21,0,0,1,182.92,35a14.81,14.81,0,0,1,5.39,3.72,6.33,6.33,0,0,1,1.84,3.83,1.53,1.53,0,0,1-.47,1.12,1.49,1.49,0,0,1-1.12.47h-5.42a1.46,1.46,0,0,1-1.23-.57c-.33-.24-.88-.69-1.62-1.34a9.38,9.38,0,0,0-2.5-1.56,8.63,8.63,0,0,0-3.32-.57,6.46,6.46,0,0,0-4.12,1.15,3.71,3.71,0,0,0-1.45,3,3.4,3.4,0,0,0,.69,2.17,6.42,6.42,0,0,0,2.78,1.62,42.33,42.33,0,0,0,6.29,1.55q13,2.54,13,11.35a9.77,9.77,0,0,1-4.44,8.31q-4.46,3.18-12.4,3.18A22.32,22.32,0,0,1,165.65,70.8Z" transform="translate(-17.21 -21.15)"/><path class="cls-1" d="M202.62,68.05c-3.16-2.93-4.83-7-5-12.21L197.52,53l.08-2.89q.28-7.8,5-12.21t12.68-4.41a20.93,20.93,0,0,1,9.65,2,14.84,14.84,0,0,1,5.85,4.95,11.36,11.36,0,0,1,2.06,5.6,1.39,1.39,0,0,1-.47,1.23,1.78,1.78,0,0,1-1.26.51H224.7a1.69,1.69,0,0,1-1.16-.33,3.31,3.31,0,0,1-.72-1.19,8.49,8.49,0,0,0-2.86-4A7.79,7.79,0,0,0,215.45,41a7.3,7.3,0,0,0-5.75,2.31c-1.37,1.54-2.11,3.9-2.2,7.08l-.08,2.67.08,2.39q.44,9.39,7.95,9.39A7.84,7.84,0,0,0,220,63.68a8.23,8.23,0,0,0,2.82-4,3,3,0,0,1,.68-1.16,1.76,1.76,0,0,1,1.2-.36h6.43a1.78,1.78,0,0,1,1.26.51,1.39,1.39,0,0,1,.47,1.23,11.44,11.44,0,0,1-2,5.45,15.14,15.14,0,0,1-5.78,5,20.55,20.55,0,0,1-9.76,2.09C210,72.46,205.77,71,202.62,68.05Z" transform="translate(-17.21 -21.15)"/><path class="cls-1" d="M283.74,72a1.68,1.68,0,0,1-.51-1.23V36.62a1.66,1.66,0,0,1,.51-1.27,1.75,1.75,0,0,1,1.23-.47h6a1.71,1.71,0,0,1,1.26.47,1.75,1.75,0,0,1,.47,1.27v3q4.41-5.41,12.07-5.42a13.49,13.49,0,0,1,10.55,4.34q3.9,4.34,3.9,11.92V70.73a1.72,1.72,0,0,1-.47,1.23,1.65,1.65,0,0,1-1.26.5H311a1.72,1.72,0,0,1-1.73-1.73V50.86a9.63,9.63,0,0,0-2.06-6.55A7.43,7.43,0,0,0,301.3,42a7.76,7.76,0,0,0-5.93,2.38,9.14,9.14,0,0,0-2.24,6.51V70.73a1.72,1.72,0,0,1-.47,1.23,1.65,1.65,0,0,1-1.26.5H285A1.69,1.69,0,0,1,283.74,72Z" transform="translate(-17.21 -21.15)"/><path class="cls-1" d="M335.12,69Q331.81,65.6,331.8,59V42.62h-5.71a1.74,1.74,0,0,1-1.74-1.74V36.62a1.74,1.74,0,0,1,1.74-1.74h5.71v-12a1.69,1.69,0,0,1,.5-1.27,1.77,1.77,0,0,1,1.23-.47h6a1.62,1.62,0,0,1,1.74,1.74v12h9A1.72,1.72,0,0,1,352,36.62v4.26a1.72,1.72,0,0,1-1.73,1.74h-9V58.15a8.37,8.37,0,0,0,1.08,4.7,4,4,0,0,0,3.54,1.59H351a1.62,1.62,0,0,1,1.74,1.74v4.55a1.77,1.77,0,0,1-.47,1.23,1.69,1.69,0,0,1-1.27.5H345Q338.45,72.46,335.12,69Z" transform="translate(-17.21 -21.15)"/><path class="cls-1" d="M359.62,72a1.71,1.71,0,0,1-.5-1.23v-34a1.79,1.79,0,0,1,.5-1.3,1.68,1.68,0,0,1,1.23-.51h5.93a1.73,1.73,0,0,1,1.8,1.81v3q3.62-4.77,10.41-4.77h3a1.71,1.71,0,0,1,1.26.47,1.75,1.75,0,0,1,.47,1.27v5.27a1.75,1.75,0,0,1-.47,1.23,1.62,1.62,0,0,1-1.26.51h-5.71a6.74,6.74,0,0,0-7.3,7.3v19.8a1.72,1.72,0,0,1-1.74,1.73h-6.43A1.71,1.71,0,0,1,359.62,72Z" transform="translate(-17.21 -21.15)"/><path class="cls-1" d="M393,71a12.18,12.18,0,0,1-4.85-4,9.81,9.81,0,0,1,2.21-13.51q4-3,10.91-4.12l9.9-1.45V46.37a6.35,6.35,0,0,0-1.59-4.69c-1.06-1.06-2.74-1.59-5.06-1.59a7.49,7.49,0,0,0-3.83.86,12.31,12.31,0,0,0-2.35,1.78c-.6.6-1,1-1.19,1.19a1.08,1.08,0,0,1-1.08.86h-5.64a1.59,1.59,0,0,1-1.12-.43,1.51,1.51,0,0,1-.47-1.16,7.69,7.69,0,0,1,1.77-4.08,13.77,13.77,0,0,1,5.24-4,20.18,20.18,0,0,1,8.74-1.7q8.54,0,12.44,3.83a13.44,13.44,0,0,1,3.9,10V70a1.77,1.77,0,0,1-.47,1.23,1.69,1.69,0,0,1-1.27.5h-6A1.72,1.72,0,0,1,411.44,70V67.19A11.77,11.77,0,0,1,407,71a15.75,15.75,0,0,1-7.23,1.48A15.28,15.28,0,0,1,393,71Zm15.72-8.06c1.68-1.73,2.53-4.24,2.53-7.51V54L404,55.12q-8.31,1.31-8.31,5.56a4,4,0,0,0,1.91,3.58,8.18,8.18,0,0,0,4.59,1.26A8.67,8.67,0,0,0,408.7,62.92Z" transform="translate(-17.21 -21.15)"/><path class="cls-1" d="M433.74,68.05c-3.16-2.93-4.83-7-5-12.21L428.64,53l.07-2.89q.3-7.8,5-12.21t12.68-4.41a20.93,20.93,0,0,1,9.65,2,15,15,0,0,1,5.85,4.95A11.46,11.46,0,0,1,464,46a1.42,1.42,0,0,1-.47,1.23,1.78,1.78,0,0,1-1.26.51h-6.44a1.66,1.66,0,0,1-1.15-.33,3.17,3.17,0,0,1-.73-1.19,8.48,8.48,0,0,0-2.85-4A7.83,7.83,0,0,0,446.56,41a7.28,7.28,0,0,0-5.74,2.31c-1.38,1.54-2.11,3.9-2.21,7.08l-.07,2.67.07,2.39q.43,9.39,7.95,9.39a7.88,7.88,0,0,0,4.56-1.19,8.28,8.28,0,0,0,2.81-4,3.11,3.11,0,0,1,.69-1.16,1.73,1.73,0,0,1,1.19-.36h6.44a1.78,1.78,0,0,1,1.26.51,1.42,1.42,0,0,1,.47,1.23,11.54,11.54,0,0,1-2,5.45,15.22,15.22,0,0,1-5.78,5,20.58,20.58,0,0,1-9.76,2.09C441.12,72.46,436.89,71,433.74,68.05Z" transform="translate(-17.21 -21.15)"/><path class="cls-1" d="M478.65,69Q475.32,65.6,475.32,59V42.62h-5.7a1.64,1.64,0,0,1-1.23-.51,1.68,1.68,0,0,1-.51-1.23V36.62a1.68,1.68,0,0,1,.51-1.23,1.64,1.64,0,0,1,1.23-.51h5.7v-12a1.66,1.66,0,0,1,.51-1.27,1.77,1.77,0,0,1,1.23-.47h6a1.62,1.62,0,0,1,1.73,1.74v12h9a1.68,1.68,0,0,1,1.23.51,1.71,1.71,0,0,1,.5,1.23v4.26a1.71,1.71,0,0,1-.5,1.23,1.68,1.68,0,0,1-1.23.51h-9V58.15a8.29,8.29,0,0,0,1.09,4.7,4,4,0,0,0,3.54,1.59h5.06a1.71,1.71,0,0,1,1.26.47,1.75,1.75,0,0,1,.47,1.27v4.55a1.77,1.77,0,0,1-.47,1.23,1.65,1.65,0,0,1-1.26.5h-5.93Q482,72.46,478.65,69Z" transform="translate(-17.21 -21.15)"/><path class="cls-1" d="M273.18,38.69l-4.82,4.82h-1.52l-.55.52a12.6,12.6,0,1,1-1.35-1.35l.52-.54V40.61l5.05-5q-4.92-4.43-13.75-4.44-9.12,0-14.08,4.64t-5.33,12.84L237.27,52l.08,3.4q.38,8.13,5.41,12.8t14,4.68q8.89,0,13.92-4.68t5.42-12.8c0-.62.08-1.75.08-3.4s0-2.79-.08-3.41A19.65,19.65,0,0,0,273.18,38.69Z" transform="translate(-17.21 -21.15)"/><path class="cls-3" d="M256.76,43.51a8.7,8.7,0,1,0,8.7,8.7A8.69,8.69,0,0,0,256.76,43.51Z" transform="translate(-17.21 -21.15)"/><path class="cls-1" d="M256.76,43.51a8.7,8.7,0,1,0,8.7,8.7A8.69,8.69,0,0,0,256.76,43.51Zm13.64-7.87L275.13,31,278,33.84l-4.78,4.8Z" transform="translate(-17.21 -21.15)"/></g></g></svg>